<svg width="3142" height="28" viewBox="0 0 3142 28" fill="none" xmlns="http://www.w3.org/2000/svg">
<g filter="url(#filter0_d_2096_444)">
<g clip-path="url(#clip0_2096_444)">
<path d="M19.5049 8V8.78L19.4749 8.81L15.3949 13.355H19.4899V14.615H15.4099L19.4899 19.175V20H18.0349L13.7299 15.2L9.42486 20H7.98486V19.16L8.01486 19.13L12.0649 14.615H7.99986V13.355H12.0799L7.99986 8.795V8H9.49986L13.7449 12.755L17.9899 8H19.5049Z" fill="#E2BD7C"/>
<path d="M63.1997 8L73.2047 19.175V20H61.6997V18.74H70.6097L61.6997 8.795V8H63.1997Z" fill="#E2BD7C"/>
<path d="M116.9 8L121.685 13.355H126.905V14.615H122.825L126.905 19.175V20H115.4V18.74H124.31L120.62 14.615H115.4V13.355H119.48L115.4 8.795V8H116.9Z" fill="#E2BD7C"/>
<path d="M180.605 8.00011V8.78011L170.54 20.0001H169.1V19.1601L169.13 19.1301L179.105 7.98511H180.62L180.605 8.00011Z" fill="#E2BD7C"/>
<path d="M234.305 8V8.78L229.64 13.97L234.305 19.175V20H232.85L228.545 15.2L224.24 20H222.8V8H224.3L228.545 12.755L232.79 8H234.305ZM224.675 17.06L227.435 13.97L224.675 10.895V17.06Z" fill="#E2BD7C"/>
<path d="M288.005 8V9.26H279.11L288.005 19.19V20.015H286.55L276.5 8.81V8.015H288.005V8Z" fill="#E2BD7C"/>
<path d="M330.185 8H332.075V20H330.185V8ZM335 8H336.89V20H335V8ZM339.815 8H341.705V20H339.815V8Z" fill="#E2BD7C"/>
<path d="M395.39 8V8.78L386.465 18.74H395.39V20H383.885V19.16L393.875 8L395.39 8Z" fill="#E2BD7C"/>
<path d="M449.09 8V8.78L444.425 13.97L449.09 19.175V20H447.635L443.33 15.2L439.025 20H437.585V8H439.085L443.33 12.755L447.575 8H449.09ZM439.475 17.06L442.235 13.97L439.475 10.895V17.06Z" fill="#E2BD7C"/>
<path d="M497.99 8V13.355H502.79V14.615H497.99V20H496.1V14.615H491.285V13.355H496.1V8H497.99Z" fill="#E2BD7C"/>
<path d="M556.49 8V8.78L551.825 13.97L556.49 19.175V20H555.035L550.73 15.2L546.425 20H544.985V8H546.485L550.73 12.755L554.975 8H556.49ZM546.875 17.06L549.635 13.97L546.875 10.895V17.06Z" fill="#E2BD7C"/>
<path d="M598.685 8.03003H610.16V9.29003H598.685V8.03003ZM598.685 13.37H610.16V14.63H598.685V13.37ZM598.685 18.74H610.16V20H598.685V18.74Z" fill="#E2BD7C"/>
<path d="M659.09 8V13.355H663.89V14.615H659.09V20H657.2V14.615H652.385V13.355H657.2V8H659.09Z" fill="#E2BD7C"/>
<path d="M717.59 8V20H716.135L711.83 15.2L707.525 20H706.085V19.16L706.115 19.13L710.735 13.97L706.085 8.795V8H707.585L711.83 12.755L716.075 8H717.59ZM715.7 17.075V10.88L712.925 13.97L715.7 17.075Z" fill="#E2BD7C"/>
<path d="M771.29 8V8.78L762.365 18.74H771.29V20H759.785V19.16L769.775 8L771.29 8Z" fill="#E2BD7C"/>
<path d="M824.99 8V8.78L824.96 8.81L820.88 13.355H824.975V14.615H820.895L824.975 19.175V20H823.52L819.215 15.2L814.91 20H813.47V19.16L813.5 19.13L817.55 14.615H813.47V13.355H817.55L813.47 8.795V8H824.975H824.99ZM819.23 12.755L822.365 9.26H816.11L819.245 12.755H819.23Z" fill="#E2BD7C"/>
<path d="M878.69 8V8.78L874.595 13.355H878.69V14.615H873.455L868.625 20H867.185V8H878.69ZM869.06 13.355H872.375L876.05 9.26H869.06V13.355ZM869.06 17.06L871.25 14.615H869.06V17.06Z" fill="#E2BD7C"/>
<path d="M922.37 8L927.155 13.355H932.375V14.615H928.295L932.375 19.175V20H920.87V18.74H929.78L926.09 14.615H920.87V13.355H924.95L920.87 8.795V8H922.37Z" fill="#E2BD7C"/>
<path d="M974.57 8.03003H986.045V9.29003H974.57V8.03003ZM974.57 13.37H986.045V14.63H974.57V13.37ZM974.57 18.74H986.045V20H974.57V18.74Z" fill="#E2BD7C"/>
<path d="M1039.77 8V20H1038.32L1034.02 15.2L1029.71 20H1028.27V19.16L1028.3 19.13L1032.92 13.97L1028.27 8.795V8H1029.77L1034.02 12.755L1038.26 8H1039.77ZM1037.9 17.075V10.88L1035.13 13.97L1037.9 17.075Z" fill="#E2BD7C"/>
<path d="M1081.97 8.03003H1093.44V9.29003H1081.97V8.03003ZM1081.97 13.37H1093.44V14.63H1081.97V13.37ZM1081.97 18.74H1093.44V20H1081.97V18.74Z" fill="#E2BD7C"/>
<path d="M1147.17 8V8.78L1142.51 13.97L1147.17 19.175V20H1145.72L1141.41 15.2L1137.11 20H1135.67V8H1147.17ZM1137.56 17.06L1140.32 13.97L1137.56 10.895V17.06ZM1141.41 12.755L1144.55 9.26H1138.29L1141.43 12.755H1141.41Z" fill="#E2BD7C"/>
<path d="M1200.88 8.00011V8.78011L1190.81 20.0001H1189.37V19.1601L1189.4 19.1301L1199.38 7.98511H1200.89L1200.88 8.00011Z" fill="#E2BD7C"/>
<path d="M1254.57 8V8.78L1245.65 18.74H1254.57V20H1243.07V19.16L1253.06 8L1254.57 8Z" fill="#E2BD7C"/>
<path d="M1308.27 8V20H1306.82L1301.99 14.615H1296.77V13.355H1300.85L1296.77 8.795V8H1298.27L1303.06 13.355H1306.39V8H1308.27ZM1306.39 17.075V14.615H1304.18L1306.39 17.075Z" fill="#E2BD7C"/>
<path d="M1350.47 8.03003H1361.94V9.29003H1350.47V8.03003ZM1350.47 13.37H1361.94V14.63H1350.47V13.37ZM1350.47 18.74H1361.94V20H1350.47V18.74Z" fill="#E2BD7C"/>
<path d="M1415.67 8V8.78L1411.58 13.355H1415.67V14.615H1410.44L1405.61 20H1404.17V8H1415.67ZM1406.04 13.355H1409.36L1413.03 9.26H1406.04V13.355ZM1406.04 17.06L1408.23 14.615H1406.04V17.06Z" fill="#E2BD7C"/>
<path d="M1469.38 8V9.26H1464.58V13.82L1469.38 19.19V20.015H1457.87V18.755H1462.69V14.165L1457.87 8.795V8L1469.38 8ZM1462.69 11.705V9.26H1460.48L1462.69 11.705ZM1464.56 18.74H1466.78L1464.56 16.265V18.74Z" fill="#E2BD7C"/>
<path d="M1523.06 8.00011V8.78011L1512.99 20.0001H1511.55V19.1601L1511.58 19.1301L1521.56 7.98511H1523.07L1523.06 8.00011Z" fill="#E2BD7C"/>
<path d="M1576.76 8V9.26H1567.86L1576.76 19.19V20.015H1575.3L1565.25 8.81V8.015H1576.76V8Z" fill="#E2BD7C"/>
<path d="M1630.46 8V8.78L1621.54 18.74H1630.46V20H1618.96V19.16L1628.95 8L1630.46 8Z" fill="#E2BD7C"/>
<path d="M1684.16 8V9.26H1679.36V13.82L1684.16 19.19V20.015H1672.65V18.755H1677.47V14.165L1672.65 8.795V8L1684.16 8ZM1677.47 11.705V9.26H1675.26L1677.47 11.705ZM1679.36 18.74H1681.56L1679.36 16.265V18.74Z" fill="#E2BD7C"/>
<path d="M1727.85 8L1732.64 13.355H1737.86V14.615H1733.78L1737.86 19.175V20H1726.35V18.74H1735.26L1731.57 14.615H1726.35V13.355H1730.43L1726.35 8.795V8H1727.85Z" fill="#E2BD7C"/>
<path d="M1791.56 8V8.78L1782.63 18.74H1791.56V20H1780.05V19.16L1790.04 8L1791.56 8Z" fill="#E2BD7C"/>
<path d="M1845.26 8V8.78L1845.23 8.81L1841.15 13.355H1845.25V14.615H1841.17L1845.25 19.175V20H1833.74V19.16L1833.77 19.13L1837.82 14.615H1833.74V13.355H1837.82L1833.74 8.795V8H1835.24L1839.49 12.755L1843.73 8H1845.25H1845.26ZM1836.34 18.74H1842.67L1839.5 15.2L1836.34 18.74Z" fill="#E2BD7C"/>
<path d="M1898.96 8V8.78L1898.93 8.81L1894.85 13.355H1898.95V14.615H1894.87L1898.95 19.175V20H1897.49L1893.19 15.2L1888.88 20H1887.44V19.16L1887.47 19.13L1891.52 14.615H1887.44V13.355H1891.52L1887.44 8.795V8H1888.94L1893.19 12.755L1897.43 8H1898.95H1898.96Z" fill="#E2BD7C"/>
<path d="M1941.15 8H1943.04V20H1941.15V8ZM1945.97 8H1947.86V20H1945.97V8ZM1950.77 8H1952.66V20H1950.77V8Z" fill="#E2BD7C"/>
<path d="M2006.36 8V8.78L1997.43 18.74H2006.36V20H1994.85V19.16L2004.84 8L2006.36 8Z" fill="#E2BD7C"/>
<path d="M2060.06 8V8.78L2049.99 20H2048.55V8H2060.06ZM2050.43 17.06L2057.42 9.26H2050.43V17.06Z" fill="#E2BD7C"/>
<path d="M2113.75 8V8.78L2104.82 18.74H2113.75V20H2102.24V19.16L2112.23 8L2113.75 8Z" fill="#E2BD7C"/>
<path d="M2157.44 8L2162.23 13.355H2167.45V14.615H2163.37L2167.45 19.175V20H2155.94V18.74H2164.85L2161.16 14.615H2155.94V13.355H2160.02L2155.94 8.795V8H2157.44Z" fill="#E2BD7C"/>
<path d="M2221.15 8V8.78L2221.12 8.81L2217.03 13.355H2221.13V14.615H2217.05L2221.13 19.175V20H2209.62V19.16L2209.66 19.13L2213.7 14.615H2209.62V13.355H2213.7L2209.62 8.795V8H2211.12L2215.37 12.755L2219.62 8H2221.13H2221.15ZM2212.22 18.74H2218.55L2215.38 15.2L2212.22 18.74Z" fill="#E2BD7C"/>
<path d="M2274.84 8V8.78L2265.92 18.74H2274.84V20H2263.34V19.16L2273.33 8L2274.84 8Z" fill="#E2BD7C"/>
<path d="M2328.54 8V8.78L2328.51 8.81L2324.43 13.355H2328.53V14.615H2324.45L2328.53 19.175V20H2327.08L2322.77 15.2L2318.47 20H2317.02V19.16L2317.05 19.13L2321.1 14.615H2317.02V13.355H2321.1L2317.02 8.795V8H2328.53H2328.54ZM2322.78 12.755L2325.92 9.26H2319.66L2322.8 12.755H2322.78Z" fill="#E2BD7C"/>
<path d="M2382.25 8V8.78L2382.22 8.81L2372.18 20H2370.74V8H2372.63V17.06L2380.75 8H2382.26H2382.25Z" fill="#E2BD7C"/>
<path d="M2431.15 8V13.355H2435.95V14.615H2431.15V20H2429.26V14.615H2424.44V13.355H2429.26V8H2431.15Z" fill="#E2BD7C"/>
<path d="M2479.64 8L2489.64 19.175V20H2478.14V18.74H2487.05L2478.14 8.795V8H2479.64Z" fill="#E2BD7C"/>
<path d="M2543.34 8V8.78L2539.25 13.355H2543.34V14.615H2539.26L2543.34 19.175V20H2541.89L2537.58 15.2L2533.28 20H2531.84V8H2533.34L2537.58 12.755L2541.83 8H2543.34ZM2533.71 13.355H2535.92L2533.71 10.895V13.355ZM2533.71 17.06L2535.9 14.615H2533.71V17.06Z" fill="#E2BD7C"/>
<path d="M2597.05 8.00011V8.78011L2586.98 20.0001H2585.54V19.1601L2585.57 19.1301L2595.55 7.98511H2597.06L2597.05 8.00011Z" fill="#E2BD7C"/>
<path d="M2650.73 8V8.78L2646.06 13.97L2650.73 19.175V20H2649.27L2644.97 15.2L2640.66 20H2639.22V8H2650.73ZM2641.11 17.06L2643.87 13.97L2641.11 10.895V17.06ZM2644.97 12.755L2648.1 9.26H2641.85L2644.98 12.755H2644.97Z" fill="#E2BD7C"/>
<path d="M2694.42 8L2704.43 19.175V20H2692.92V18.74H2701.83L2692.92 8.795V8H2694.42Z" fill="#E2BD7C"/>
<path d="M2758.13 8V8.78L2754.03 13.355H2758.13V14.615H2754.05L2758.13 19.175V20H2756.67L2752.37 15.2L2748.06 20H2746.62V8H2748.12L2752.37 12.755L2756.62 8H2758.13ZM2748.52 13.355H2750.72L2748.52 10.895V13.355ZM2748.52 17.06L2750.7 14.615H2748.52V17.06Z" fill="#E2BD7C"/>
<path d="M2811.83 8.00011V8.78011L2801.77 20.0001H2800.33V19.1601L2800.36 19.1301L2810.33 7.98511H2811.85L2811.83 8.00011Z" fill="#E2BD7C"/>
<path d="M2865.53 8V20H2864.08L2859.77 15.2L2855.47 20H2854.02V19.16L2854.05 19.13L2858.69 13.97L2854.04 8.795V8H2855.54L2859.78 12.755L2864.03 8H2865.54H2865.53ZM2863.64 17.075V10.88L2860.86 13.97L2863.64 17.075Z" fill="#E2BD7C"/>
<path d="M2909.22 8L2919.23 19.175V20H2907.72V18.74H2916.63L2907.72 8.795V8H2909.22Z" fill="#E2BD7C"/>
<path d="M2961.42 8.03003H2972.9V9.29003H2961.42V8.03003ZM2961.42 13.37H2972.9V14.63H2961.42V13.37ZM2961.42 18.74H2972.9V20H2961.42V18.74Z" fill="#E2BD7C"/>
<path d="M3026.63 8V20H3025.17L3020.87 15.2L3016.56 20H3015.12V19.16L3015.16 19.13L3019.79 13.97L3015.14 8.795V8H3016.64L3020.88 12.755L3025.13 8H3026.65H3026.63ZM3024.74 17.075V10.88L3021.97 13.97L3024.74 17.075Z" fill="#E2BD7C"/>
<path d="M3070.33 8L3080.33 19.175V20H3068.83V18.74H3077.74L3068.83 8.795V8H3070.33Z" fill="#E2BD7C"/>
<path d="M3122.53 8.03003H3134V9.29003H3122.53V8.03003ZM3122.53 13.37H3134V14.63H3122.53V13.37ZM3122.53 18.74H3134V20H3122.53V18.74Z" fill="#E2BD7C"/>
</g>
</g>
<defs>
<filter id="filter0_d_2096_444" x="0" y="0" width="3142" height="28" filterUnits="userSpaceOnUse" color-interpolation-filters="sRGB">
<feFlood flood-opacity="0" result="BackgroundImageFix"/>
<feColorMatrix in="SourceAlpha" type="matrix" values="0 0 0 0 0 0 0 0 0 0 0 0 0 0 0 0 0 0 127 0" result="hardAlpha"/>
<feOffset/>
<feGaussianBlur stdDeviation="4"/>
<feComposite in2="hardAlpha" operator="out"/>
<feColorMatrix type="matrix" values="0 0 0 0 0.917647 0 0 0 0 0.858824 0 0 0 0 0.721569 0 0 0 1 0"/>
<feBlend mode="normal" in2="BackgroundImageFix" result="effect1_dropShadow_2096_444"/>
<feBlend mode="normal" in="SourceGraphic" in2="effect1_dropShadow_2096_444" result="shape"/>
</filter>
<clipPath id="clip0_2096_444">
<rect width="3126" height="12" fill="white" transform="translate(8 8)"/>
</clipPath>
</defs>
</svg>
